<svg xmlns="http://www.w3.org/2000/svg" style="display: none;">
  <!-- Footsteps Icon -->
  <symbol id="footsteps-icon" viewBox="0 0 512 512">
    <path d="M200 246.84c8.81 58.62-7.33 90.67-52.91 97.41-50.65 7.49-71.52-26.44-80.33-85.06-11.85-78.88 16-127.94 55.71-131.1 36.14-2.87 68.71 60.14 77.53 118.75zM223.65 409.53c3.13 33.28-14.86 64.34-42 69.66-27.4 5.36-58.71-16.37-65.09-49.19s17.75-34.56 47.32-40.21 55.99-20.4 59.77 19.74zM312 150.83c-8.81 58.62 7.33 90.67 52.9 97.41 50.66 7.49 71.52-26.44 80.33-85.06 11.86-78.89-16-128.22-55.7-131.1-36.4-2.64-68.71 60.13-77.53 118.75zM288.35 313.53c-3.13 33.27 14.86 64.34 42 69.66 27.4 5.36 58.71-16.37 65.09-49.19s-17.75-34.56-47.32-40.22-55.99-20.4-59.77 19.75z" 
    fill="none" stroke="currentColor" stroke-miterlimit="10" stroke-width="32"/>
  </symbol>

  <!-- Location Icon -->
  <symbol id="location-icon" viewBox="0 0 512 512">
    <path d="M256 48c-79.5 0-144 61.39-144 137 0 87 96 224.87 131.25 272.49a15.77 15.77 0 0025.5 0C304 409.89 400 272.07 400 185c0-75.61-64.5-137-144-137z" 
    fill="none" stroke="currentColor" stroke-linecap="round" stroke-linejoin="round" stroke-width="32"/>
    <circle cx="256" cy="192" r="48" fill="none" stroke="currentColor" stroke-linecap="round" stroke-linejoin="round" stroke-width="32"/>
  </symbol>

  <!-- Flag Icon -->
  <symbol id="flag-icon" viewBox="0 0 512 512">
    <path d="M80 464V68.14a8 8 0 014-6.9C91.81 56.66 112.92 48 160 48c64 0 145 48 192 48a199.53 199.53 0 0077.23-15.77 2 2 0 012.77 1.85v219.36a4 4 0 01-2.39 3.65C421.37 308.7 392.33 320 352 320c-48 0-128-32-192-32s-80 16-80 16" 
    fill="none" stroke="currentColor" stroke-linecap="round" stroke-miterlimit="10" stroke-width="32"/>
  </symbol>

  <!-- Radio Button Off Icon -->
  <symbol id="radio-button-off-outline" viewBox="0 0 512 512">
    <path d="M448,256c0-106-86-192-192-192S64,150,64,256s86,192,192,192S448,362,448,256Z" fill="none" stroke="currentColor" stroke-miterlimit="10" stroke-width="32"/>
  </symbol>

  <!-- Radio Button On Icon -->
  <symbol id="radio-button-on-outline" viewBox="0 0 512 512">
    <path d="M448,256c0-106-86-192-192-192S64,150,64,256s86,192,192,192S448,362,448,256Z" fill="none" stroke="currentColor" stroke-miterlimit="10" stroke-width="32"/>
    <circle cx="256" cy="256" r="144"/>
  </symbol>

  <!-- Git Network Icon -->
  <symbol id="git-network-outline" viewBox="0 0 512 512">
    <circle cx="128" cy="96" r="48" style="fill:none;stroke:#000;stroke-linecap:round;stroke-linejoin:round;stroke-width:32px"/><circle cx="256" cy="416" r="48" style="fill:none;stroke:#000;stroke-linecap:round;stroke-linejoin:round;stroke-width:32px"/><line x1="256" y1="256" x2="256" y2="368" style="fill:none;stroke:#000;stroke-linecap:round;stroke-linejoin:round;stroke-width:32px"/><circle cx="384" cy="96" r="48" style="fill:none;stroke:#000;stroke-linecap:round;stroke-linejoin:round;stroke-width:32px"/><path d="M128,144c0,74.67,68.92,112,128,112" style="fill:none;stroke:#000;stroke-linecap:round;stroke-linejoin:round;stroke-width:32px"/><path d="M384,144c0,74.67-68.92,112-128,112" style="fill:none;stroke:#000;stroke-linecap:round;stroke-linejoin:round;stroke-width:32px"/>
  </symbol>



  <!-- Chevron Back Icon -->
  <symbol id="chevron-back-outline" viewBox="0 0 512 512">
    <path fill="none" stroke="currentColor" stroke-linecap="round" stroke-linejoin="round" stroke-width="48" d="M328 112L184 256l144 144"/>
  </symbol>

  <!-- Person Circle Icon -->
  <symbol id="person-circle-outline" viewBox="0 0 512 512">
     <path d="M258.9,48C141.92,46.42,46.42,141.92,48,258.9,49.56,371.09,140.91,462.44,253.1,464c117,1.6,212.48-93.9,210.88-210.88C462.44,140.91,371.09,49.56,258.9,48ZM385.32,375.25a4,4,0,0,1-6.14-.32,124.27,124.27,0,0,0-32.35-29.59C321.37,329,289.11,320,256,320s-65.37,9-90.83,25.34a124.24,124.24,0,0,0-32.35,29.58,4,4,0,0,1-6.14.32A175.32,175.32,0,0,1,80,259C78.37,161.69,158.22,80.24,255.57,80S432,158.81,432,256A175.32,175.32,0,0,1,385.32,375.25Z"/><path d="M256,144c-19.72,0-37.55,7.39-50.22,20.82s-19,32-17.57,51.93C191.11,256,221.52,288,256,288s64.83-32,67.79-71.24c1.48-19.74-4.8-38.14-17.68-51.82C293.39,151.44,275.59,144,256,144Z"/>
  </symbol>

  

  <!-- Map Icon -->
  <symbol id="map-outline" viewBox="0 0 512 512">
  <path d="M313.27,124.64,198.73,51.36a32,32,0,0,0-29.28.35L56.51,127.49A16,16,0,0,0,48,141.63v295.8a16,16,0,0,0,23.49,14.14l97.82-63.79a32,32,0,0,1,29.5-.24l111.86,73a32,32,0,0,0,29.27-.11l115.43-75.94a16,16,0,0,0,8.63-14.2V74.57a16,16,0,0,0-23.49-14.14l-98,63.86A32,32,0,0,1,313.27,124.64Z" style="fill:none;stroke:currentColor;stroke-linecap:round;stroke-linejoin:round;stroke-width:32px"/><line x1="328" y1="128" x2="328" y2="464" style="fill:none;stroke:currentColor;stroke-linecap:round;stroke-linejoin:round;stroke-width:32px"/><line x1="184" y1="48" x2="184" y2="384" style="fill:none;stroke:currentColor;stroke-linecap:round;stroke-linejoin:round;stroke-width:32px"/>
  </symbol>
  

  <!-- Chevron Forward Icon -->
  <symbol id="chevron-forward-outline" viewBox="0 0 512 512">
    <path  fill="none" stroke="currentColor" stroke-linecap="round" stroke-linejoin="round" stroke-width="48" d="M184 112l144 144-144 144"/>
  </symbol>

  <!-- List Icon -->
  <symbol id="list-outline" viewBox="0 0 512 512">
    <line x1="160" y1="144" x2="448" y2="144" style="fill:none;stroke:currentColor;stroke-linecap:round;stroke-linejoin:round;stroke-width:32px"/>
    <line x1="160" y1="256" x2="448" y2="256" style="fill:none;stroke:currentColor;stroke-linecap:round;stroke-linejoin:round;stroke-width:32px"/>
    <line x1="160" y1="368" x2="448" y2="368" style="fill:none;stroke:currentColor;stroke-linecap:round;stroke-linejoin:round;stroke-width:32px"/>
    <circle cx="80" cy="144" r="16" style="fill:none;stroke:currentColor;stroke-linecap:round;stroke-linejoin:round;stroke-width:32px"/>
    <circle cx="80" cy="256" r="16" style="fill:none;stroke:currentColor;stroke-linecap:round;stroke-linejoin:round;stroke-width:32px"/>
    <circle cx="80" cy="368" r="16" style="fill:none;stroke:currentColor;stroke-linecap:round;stroke-linejoin:round;stroke-width:32px"/>
  </symbol>

</svg>

